<svg width="28" height="28" fill="none" xmlns="http://www.w3.org/2000/svg"><path d="M21.883 7.177l4.795.35.35-4.796-1.644-.12-.137 1.887A13.978 13.978 0 0014.972 0c-7.72 0-14 6.28-14 14s6.28 14 14 14c4.668 0 9.015-2.322 11.629-6.211l-1.368-.92a12.35 12.35 0 01-10.26 5.483C8.16 26.352 2.62 20.811 2.62 14S8.161 1.648 14.972 1.648c3.503 0 6.8 1.483 9.128 4.039l-2.097-.153-.12 1.643z" fill="#fff"/><path d="M8.096 15.547c0-.53.53-.873 1.282-1.255.864-.436 1.468-.938 1.468-2.016 0-1.273-.818-2.063-2.286-2.063-1.264 0-2.202.604-2.611 1.069l.92.985c.334-.344.892-.734 1.487-.734.483 0 .799.26.799.761 0 .781-.771 1.116-1.561 1.469-1.338.604-1.664 1.403-1.664 3.122h4.926v-1.338h-2.76zm7.518-1.384v-3.885H14.59l-3.066 3.885v1.329h2.602v1.384h1.486v-1.384h.818v-1.33h-.818zm-1.32 0h-1.292l1.292-1.655v1.655zm6.161-2.249c-.715 0-1.338.335-1.691.91v-2.722h-1.487v6.784h1.487v-2.797c.186-.52.678-.864 1.031-.864.428 0 .706.288.706.92v2.74h1.487v-3.122c0-.845-.223-1.849-1.533-1.849z" fill="#fff"/></svg>