<svg width="115" height="115" viewBox="0 0 115 115" fill="none" xmlns="http://www.w3.org/2000/svg">
<g clip-path="url(#clip0_8_228)">
<path d="M113.128 10.0866C112.219 9.37214 111.005 9.18133 109.919 9.58204L95.4589 14.9241C94.6024 14.3335 93.4844 14.1498 92.4325 14.5321L55.2771 28.0321C54.4475 28.3336 53.7715 28.9522 53.398 29.752C53.0246 30.5517 52.9842 31.4671 53.2855 32.2969L55.0836 37.2447L53.1114 37.9734C51.3872 38.6102 50.5057 40.5243 51.1427 42.2487C51.6392 43.5926 52.9115 44.4244 54.2649 44.4244C54.6479 44.4244 55.0377 44.3578 55.4178 44.2172L57.3569 43.5007L58.7712 47.3922C59.3966 49.1366 61.3536 50.0081 63.0356 49.3837L75.3026 44.9265C76.0901 47.4383 76.4883 50.0536 76.4883 52.7325C76.4883 62.1296 71.3246 70.8761 63.2025 75.4711C59.9194 72.1907 55.3883 70.159 50.3916 70.159C45.3961 70.159 40.8659 72.1898 37.583 75.4687C34.0998 73.5042 31.1315 70.7803 28.8855 67.5143H30.4568C32.2948 67.5143 33.785 66.0241 33.785 64.1861C33.785 62.3481 32.2948 60.858 30.4568 60.858H16.1011C14.2631 60.858 12.7729 62.3481 12.7729 64.1861C12.7729 66.0241 14.2631 67.5143 16.1011 67.5143H21.1558C23.9945 73.125 28.3847 77.7944 33.8038 80.979C33.2518 82.2259 32.8369 83.5458 32.5771 84.9206H11.0419C9.78052 84.9206 8.62765 85.6337 8.06409 86.7624L1.15091 100.61C0.635938 101.642 0.691628 102.866 1.29823 103.847C1.90484 104.828 2.97583 105.424 4.12869 105.424H96.6548C97.8079 105.424 98.8786 104.828 99.4852 103.847C100.092 102.866 100.148 101.642 99.6326 100.61L92.7196 86.7617C92.1563 85.633 91.0032 84.9199 89.7418 84.9199H68.2062C67.9464 83.5441 67.531 82.2235 66.9783 80.9756C71.4138 78.3679 75.1866 74.75 77.9829 70.388C81.3601 65.1207 83.145 59.0151 83.145 52.7321C83.145 49.2713 82.6123 45.8932 81.5626 42.6518L100.191 35.8833C100.883 35.6317 101.465 35.1576 101.857 34.5439L110.433 31.3755C111.61 30.9408 112.442 29.8812 112.586 28.6349L114.379 13.085C114.511 11.9364 114.038 10.801 113.128 10.0866ZM91.2737 98.7682H9.50983L13.1002 91.5762H87.6833L91.2737 98.7682ZM39.4206 84.9199C40.8645 80.2319 45.2361 76.8148 50.3916 76.8148C55.5471 76.8148 59.9187 80.2319 61.3627 84.9199H39.4206ZM63.8905 41.9907L60.6782 33.1514L91.5776 21.9245L94.7897 30.7636L63.8905 41.9907ZM106.207 25.8406L100.807 27.8355L98.3113 20.966L107.146 17.7022L106.207 25.8406Z" fill="#fff"/>
</g>
<defs>
<clipPath id="clip0_8_228">
<rect width="113.6" height="113.6" fill="white" transform="translate(0.800781 0.600098)"/>
</clipPath>
</defs>
</svg>
