<svg width="72" height="114" viewBox="0 0 72 114" fill="none" xmlns="http://www.w3.org/2000/svg">
<path d="M68.0717 74.2586C69.0424 74.2586 69.965 73.8357 70.5986 73.1004C71.2323 72.3651 71.5143 71.3902 71.3708 70.4299L66.923 40.6645C66.679 39.0308 65.2758 37.8218 63.624 37.8218H45.5758C46.6403 36.103 47.2567 34.0788 47.2567 31.9129C47.2567 25.7057 42.2068 20.6558 35.9997 20.6558C29.7925 20.6558 24.7426 25.7057 24.7426 31.9129C24.7426 34.079 25.359 36.1032 26.4235 37.8218H8.37533C6.72347 37.8218 5.32033 39.0308 5.07627 40.6645L0.629227 70.4299C0.485673 71.39 0.767455 72.3649 1.40135 73.1004C2.03503 73.8359 2.95758 74.2586 3.92829 74.2586H15.6415L19.0278 85.7437C19.2401 86.4637 19.689 87.091 20.302 87.5243L32.6647 96.2622V107.329H28.2584C26.4162 107.329 24.9228 108.823 24.9228 110.665C24.9228 112.507 26.4158 114 28.258 114H43.7418C45.584 114 47.0774 112.507 47.0774 110.665C47.0774 108.823 45.584 107.329 43.7418 107.329H39.3355V96.2693L51.7082 87.5243C52.321 87.091 52.7699 86.4637 52.9824 85.7437L56.3687 74.2586H68.0717ZM35.9999 27.3269C38.5284 27.3269 40.5854 29.3842 40.5854 31.9126C40.5854 34.4411 38.5284 36.4984 35.9999 36.4984C33.4714 36.4984 31.4144 34.4411 31.4144 31.9126C31.4144 29.3842 33.4714 27.3269 35.9999 27.3269ZM21.1422 67.5873L22.3692 59.3759H32.6642V67.5873H21.1422ZM32.6642 44.4932V52.7046H23.3659L24.5928 44.4932H32.6642ZM47.3734 44.4932L48.6004 52.7046H39.3358V44.4932H47.3734ZM39.3355 59.3759H49.597L50.824 67.5873H39.3355V59.3759ZM57.5695 67.5873L56.3425 59.3759H62.9735L64.2004 67.5873H57.5695ZM61.9766 52.7043H55.3456L54.1186 44.493H60.7498L61.9766 52.7043ZM17.8474 44.4932L16.6204 52.7046H10.023L11.2499 44.4932H17.8474ZM9.02631 59.3759H15.6238L14.3968 67.5873H7.79934L9.02631 59.3759ZM25.0989 82.7453L22.5969 74.2586H32.6642V88.0925L25.0989 82.7453ZM46.9108 82.7453L39.3355 88.0996V74.2588H49.4131L46.9108 82.7453Z" fill="#fff"/>
<path d="M16.7362 18.3148C17.3868 18.9607 18.2366 19.2833 19.0863 19.2833C19.9439 19.2833 20.8014 18.9545 21.4535 18.2979C22.7515 16.9906 22.7439 14.8784 21.4367 13.5804L16.6131 8.79125C15.3058 7.49329 13.194 7.50083 11.8958 8.80812C10.5978 10.1154 10.6054 12.2277 11.9127 13.5256L16.7362 18.3148Z" fill="#fff"/>
<path d="M9.15232 30.9481H14.669C16.5112 30.9481 18.0047 29.4546 18.0047 27.6124C18.0047 25.7702 16.5112 24.2767 14.669 24.2767H9.15232C7.31009 24.2767 5.81665 25.7702 5.81665 27.6124C5.81665 29.4546 7.31009 30.9481 9.15232 30.9481Z" fill="#fff"/>
<path d="M53.9944 27.6185C53.9944 29.4607 55.4878 30.9542 57.3301 30.9542H62.8468C64.689 30.9542 66.1824 29.4607 66.1824 27.6185C66.1824 25.7763 64.689 24.2828 62.8468 24.2828H57.3301C55.488 24.2828 53.9944 25.7763 53.9944 27.6185Z" fill="#fff"/>
<path d="M35.885 13.9186C37.7272 13.9186 39.2206 12.4251 39.2206 10.5829V3.73606C39.2206 1.89383 37.7272 0.400391 35.885 0.400391C34.0428 0.400391 32.5493 1.89383 32.5493 3.73606V10.5829C32.5493 12.4251 34.0428 13.9186 35.885 13.9186Z" fill="#fff"/>
<path d="M52.0353 18.7077C52.8851 18.7077 53.7351 18.3851 54.3854 17.7393L59.209 12.9501C60.5163 11.6521 60.524 9.54009 59.2258 8.2328C57.9276 6.92529 55.8154 6.91819 54.5085 8.21594L49.685 13.0051C48.3777 14.3031 48.3699 16.4151 49.6681 17.7224C50.3202 18.3791 51.1778 18.7077 52.0353 18.7077Z" fill="#fff"/>
</svg>
