<svg width="114" height="115" viewBox="0 0 114 115" fill="none" xmlns="http://www.w3.org/2000/svg">
<g clip-path="url(#clip0)">
<path d="M57.1003 75.4867V66.7846C57.1003 66.0007 56.8237 65.2421 56.3191 64.6422L53.3677 61.1334V23.0575C53.3677 18.6739 50.1177 16.3364 47.9668 14.79C47.486 14.4443 46.8876 14.0138 46.4739 13.6491C46.4585 10.4068 46.1881 6.38733 43.4044 3.59126C41.5604 1.73927 38.972 0.800293 35.7111 0.800293C29.9144 0.800293 27.3358 3.86483 26.1936 6.43547C25.1479 8.7889 24.9817 11.4512 24.9553 13.6431C24.5413 14.009 23.9387 14.4425 23.4554 14.79C21.3048 16.3366 18.0545 18.6739 18.0545 23.0575V61.1332L15.1032 64.6419C14.5986 65.2419 14.3219 66.0005 14.3219 66.7844V75.4865C12.2057 77.2842 10.8835 79.8133 10.8835 82.6132V83.6968C10.8835 88.8971 15.6357 93.128 21.4767 93.128H22.3682L24.2699 106.247C24.5071 107.884 25.91 109.098 27.5637 109.098H32.3832V111.072C32.3832 112.91 33.8733 114.4 35.7114 114.4C37.5494 114.4 39.0395 112.91 39.0395 111.072V109.098H43.8591C45.5127 109.098 46.9156 107.884 47.1528 106.248L49.0545 93.1283H49.946C55.7871 93.1283 60.5392 88.8973 60.5392 83.697V82.6134C60.5387 79.8135 59.2166 77.2844 57.1003 75.4867ZM27.3416 20.1939C28.6908 19.2237 30.2197 18.1241 31.1616 16.4911C31.4531 15.9854 31.6064 15.4121 31.6064 14.8286C31.6064 8.4734 32.5811 7.45654 35.7111 7.45654C37.1369 7.45654 38.1382 7.7361 38.6874 8.28769C39.8396 9.44499 39.8267 12.3609 39.8163 14.7036C39.5684 18.5507 46.202 20.3743 46.7115 23.0575V59.0187H39.0393V43.7012C39.0393 41.8631 37.5491 40.373 35.7111 40.373C33.8731 40.373 32.383 41.8631 32.383 43.7012V59.0187H24.7106V23.0575C24.7106 22.1817 25.5533 21.4802 27.3416 20.1939ZM20.978 72.7455V67.9982L22.932 65.6752H48.4902L50.4443 67.9982V72.7455H20.978ZM40.9782 102.442H30.4438L29.0937 93.128H42.3281L40.9782 102.442ZM53.8825 83.697C53.8825 85.2013 52.0797 86.472 49.9455 86.472H21.4767C19.3428 86.472 17.5398 85.2011 17.5398 83.697V82.6134C17.5398 80.8725 19.5806 79.4017 21.9962 79.4017H49.4259C51.8414 79.4017 53.8823 80.8723 53.8823 82.6134V83.697H53.8825Z" fill="#fff"/>
<path d="M100.19 69.753H95.3238L96.0422 69.4703C98.5844 68.4697 100.585 66.5389 101.675 64.0337C102.765 61.5285 102.814 58.7489 101.813 56.2069C101.257 54.7931 100.412 53.5477 99.3413 52.5326C102.265 49.7461 103.382 45.359 101.813 41.3748C101.252 39.9501 100.399 38.6958 99.3166 37.6763C102.194 34.8869 103.282 30.5333 101.725 26.5779C101.169 25.1641 100.324 23.919 99.2532 22.9037C100.235 21.9713 101.03 20.8433 101.587 19.5644C102.676 17.0593 102.726 14.2796 101.725 11.7376C100.724 9.19534 98.7939 7.19514 96.2887 6.10507C93.7833 5.015 91.0036 4.96596 88.4618 5.96662L87.6524 6.28523V5.42413C87.6524 3.58612 86.1623 2.09601 84.3243 2.09601C82.4863 2.09601 80.9962 3.58612 80.9962 5.42413V8.90535L72.6062 12.208C67.3584 14.2738 64.7696 20.2236 66.8355 25.4714C67.401 26.9081 68.2586 28.1439 69.3122 29.141C68.328 30.0742 67.5313 31.2038 66.9739 32.4847C65.8841 34.9899 65.8348 37.7695 66.8355 40.3115C67.3955 41.7342 68.247 42.9867 69.3273 44.0053C68.3762 44.925 67.6056 46.0317 67.0618 47.2815C65.9719 49.7867 65.9227 52.5664 66.9233 55.1086C67.4889 56.5452 68.3466 57.7813 69.4001 58.7784C66.4725 61.5647 65.3542 65.9545 66.9233 69.9407C66.9395 69.982 66.9575 70.0221 66.9743 70.063C65.8348 70.5913 65.0425 71.7423 65.0425 73.0809C65.0425 74.9189 66.5326 76.409 68.3706 76.409H68.9124V87.5583C68.9124 90.5804 69.9311 93.441 71.8072 95.7545V105.345C71.8072 107.183 73.2973 108.673 75.1354 108.673H80.952V111.072C80.952 112.91 82.4422 114.4 84.2802 114.4C86.1182 114.4 87.6083 112.91 87.6083 111.072V108.673H93.3351C95.1731 108.673 96.6632 107.183 96.6632 105.345V95.755C98.5396 93.4415 99.5583 90.5809 99.5583 87.5587V76.4095H100.19C102.028 76.4095 103.518 74.9194 103.518 73.0814C103.518 71.2433 102.028 69.753 100.19 69.753ZM93.604 63.2767L77.7486 69.518C77.4151 69.6492 77.2598 69.7277 76.7337 69.7532H76.1904C74.8611 69.6578 73.6366 68.8236 73.1167 67.503C72.3954 65.6703 73.2993 63.5924 75.132 62.8711L90.9584 56.6395C90.9681 56.6358 90.9779 56.6335 90.9877 56.6298C92.8197 55.9082 94.8982 56.8124 95.6195 58.6451C96.3406 60.4775 95.4367 62.5554 93.604 63.2767ZM90.7267 27.0587C90.7844 27.0396 90.8423 27.023 90.8996 27.0006C92.7325 26.2793 94.8101 27.1834 95.5314 29.0159C96.2528 30.8486 95.3486 32.9264 93.5162 33.6477L77.6607 39.8891C75.8276 40.6106 73.7502 39.7063 73.0289 37.8738C72.3076 36.0411 73.2115 33.9632 75.0442 33.2419L90.7267 27.0587ZM73.1651 49.9374C73.5456 49.0625 74.2443 48.3884 75.132 48.0388L90.9679 41.8041C90.9746 41.8016 90.9812 41.8001 90.9877 41.7974C91.8752 41.4478 92.8459 41.4651 93.7207 41.8458C94.5956 42.2265 95.2699 42.925 95.6193 43.8127C96.3406 45.6454 95.4365 47.7233 93.604 48.4446L77.7486 54.6859C75.9157 55.4072 73.8381 54.5033 73.1167 52.6706C72.7673 51.7827 72.7844 50.8122 73.1651 49.9374ZM75.0439 18.4016L90.8996 12.1603C91.3278 11.9916 91.7691 11.912 92.2038 11.912C93.6289 11.912 94.9785 12.7711 95.5314 14.1755C96.2528 16.0082 95.3486 18.0861 93.5162 18.8074L77.6607 25.0488C75.8285 25.7698 73.7502 24.8661 73.0289 23.0335C72.3076 21.2008 73.2115 19.1229 75.0439 18.4016ZM90.0068 94.4774V102.017H78.4633V94.4774C78.4633 93.5868 78.1065 92.7337 77.4726 92.1082C76.8678 91.5116 76.3976 90.8165 76.0754 90.0592H92.395C92.0729 90.8165 91.6025 91.5116 90.9979 92.108C90.3635 92.7335 90.0068 93.5868 90.0068 94.4774ZM92.9018 83.4028H75.5685V76.4093H92.9018V83.4028Z" fill="#fff"/>
</g>
<defs>
<clipPath id="clip0">
<rect width="113.6" height="113.6" fill="white" transform="translate(0.400879 0.800293)"/>
</clipPath>
</defs>
</svg>
