<svg width="114" height="114" viewBox="0 0 114 114" fill="none" xmlns="http://www.w3.org/2000/svg">
<g clip-path="url(#clip0_8_390)">
<path d="M113.996 85.0645C113.974 84.5868 113.333 73.9253 102.346 68.4186V48.2206C102.346 39.485 98.3618 31.306 91.1271 25.1905C84.0531 19.2105 74.6824 15.9174 64.7413 15.9174H49.6593C39.718 15.9174 30.3473 19.2107 23.2735 25.1905C16.0388 31.306 12.0546 39.4852 12.0546 48.2206V68.4186C1.06781 73.9253 0.426813 84.5868 0.40396 85.0645C0.330076 86.6141 1.3365 88.0093 2.83039 88.4279C20.4754 93.3715 38.7213 98.4833 57.2002 98.4833C75.679 98.4833 93.9247 93.3713 111.57 88.4279C113.064 88.0095 114.07 86.6143 113.996 85.0645ZM95.6897 48.2206V68.2098C88.9749 70.4827 82.2379 72.1574 75.4902 73.2359V45.8357C75.4902 36.4302 73.0483 28.6089 68.3565 22.7496C83.7242 24.2382 95.6897 35.0923 95.6897 48.2206ZM55.9102 22.5737H58.4899C62.3663 25.2433 65.1617 28.9007 66.862 33.5079C64.0692 31.7202 60.7551 30.6788 57.2002 30.6788C53.6453 30.6788 50.3312 31.7202 47.5384 33.5079C49.2384 28.9004 52.0338 25.243 55.9102 22.5737ZM53.3513 47.0742C52.1106 45.7181 50.0054 45.6245 48.6493 46.8652L45.905 49.3757C45.8899 49.1372 45.8797 48.8976 45.8797 48.6553C45.8797 42.4131 50.958 37.3348 57.2002 37.3348C60.9991 37.3348 64.3643 39.2176 66.4189 42.0971L61.9346 46.1996C58.7342 49.155 63.2081 54.0331 66.4275 51.1108L68.5067 49.2087C68.2172 55.1948 63.2569 59.9758 57.2002 59.9758C53.742 59.9758 50.6429 58.4156 48.5648 55.9639L53.1423 51.7762C54.4984 50.5355 54.592 48.4303 53.3513 47.0742ZM45.5664 62.3439C48.7046 65.015 52.766 66.632 57.2002 66.632C61.6344 66.632 65.696 65.015 68.834 62.3439V74.105C61.081 74.8922 53.3194 74.8922 45.5664 74.105V62.3439ZM18.7106 48.2206C18.7106 35.0923 30.6761 24.238 46.0439 22.7494C41.3521 28.6087 38.9101 36.43 38.9101 45.8355V73.2357C32.1625 72.1574 25.4255 70.4827 18.7106 68.2096V48.2206ZM57.2002 91.8271C40.6461 91.8271 23.8848 87.3978 7.60136 82.8509C8.42607 80.3226 10.47 76.5075 15.5014 74.1452C29.3349 78.9552 43.3567 81.3934 57.2002 81.3934C71.0436 81.3934 85.0655 78.9552 98.8989 74.1454C103.93 76.5077 105.974 80.3228 106.799 82.8511C90.5156 87.398 73.7543 91.8271 57.2002 91.8271Z" fill="#fff"/>
<path d="M29.1362 56.3026C27.2982 56.3026 25.8081 57.7928 25.8081 59.6308V60.9975C25.8081 62.8355 27.2982 64.3256 29.1362 64.3256C30.9742 64.3256 32.4644 62.8355 32.4644 60.9975V59.6308C32.4644 57.7925 30.9742 56.3026 29.1362 56.3026Z" fill="#fff"/>
<path d="M85.5435 64.3254C87.3815 64.3254 88.8716 62.8353 88.8716 60.9973V59.6305C88.8716 57.7925 87.3815 56.3024 85.5435 56.3024C83.7054 56.3024 82.2153 57.7925 82.2153 59.6305V60.9973C82.2153 62.8353 83.7052 64.3254 85.5435 64.3254Z" fill="#fff"/>
</g>
<defs>
<clipPath id="clip0_8_390">
<rect width="113.6" height="113.6" fill="white" transform="translate(0.400391 0.400391)"/>
</clipPath>
</defs>
</svg>
