<svg width="42" height="43" viewBox="0 0 42 43" fill="none" xmlns="http://www.w3.org/2000/svg">
<g clip-path="url(#clip0)">
<path d="M20.4623 28.2704V24.9764C20.4623 24.6797 20.3576 24.3926 20.1666 24.1655L19.0494 22.8374V8.42481C19.0494 6.76553 17.8192 5.88075 17.0051 5.29538C16.8231 5.16454 16.5966 5.00161 16.4399 4.86353C16.4341 3.63627 16.3318 2.11481 15.2781 1.05644C14.5801 0.355422 13.6003 0 12.366 0C10.1719 0 9.19579 1.15999 8.76344 2.13304C8.36762 3.02386 8.30471 4.03159 8.29472 4.86127C8.138 4.99976 7.9099 5.16386 7.72698 5.29538C6.91292 5.88084 5.68264 6.76553 5.68264 8.42481V22.8373L4.56548 24.1654C4.3745 24.3925 4.26977 24.6796 4.26977 24.9764V28.2703C3.46872 28.9508 2.96826 29.9081 2.96826 30.9679V31.3781C2.96826 33.3465 4.76704 34.948 6.97801 34.948H7.31546L8.03529 39.914C8.12507 40.5335 8.6561 40.993 9.28204 40.993H11.1063V41.7402C11.1063 42.436 11.6704 43 12.3661 43C13.0618 43 13.6259 42.436 13.6259 41.7402V40.9931H15.4502C16.0761 40.9931 16.6072 40.5335 16.6969 39.9141L17.4168 34.9481H17.7542C19.9652 34.9481 21.764 33.3466 21.764 31.3782V30.968C21.7638 29.9082 21.2633 28.9508 20.4623 28.2704ZM9.19797 7.34091C9.70868 6.97364 10.2874 6.55742 10.6439 5.93929C10.7543 5.74789 10.8123 5.53088 10.8123 5.31C10.8123 2.90443 11.1813 2.51953 12.366 2.51953C12.9057 2.51953 13.2847 2.62535 13.4926 2.83414C13.9287 3.2722 13.9239 4.37592 13.9199 5.26271C13.8261 6.71892 16.3371 7.40919 16.5299 8.42481V22.0369H13.6258V16.2389C13.6258 15.5432 13.0618 14.9791 12.366 14.9791C11.6703 14.9791 11.1063 15.5432 11.1063 16.2389V22.0369H8.20208V8.42481C8.20208 8.09332 8.52106 7.82776 9.19797 7.34091ZM6.78921 27.2328V25.4358L7.52887 24.5565H17.2032L17.9428 25.4358V27.2328H6.78921ZM14.3597 38.4736H10.3722L9.8612 34.948H14.8707L14.3597 38.4736ZM19.2443 31.3782C19.2443 31.9476 18.5619 32.4286 17.754 32.4286H6.97801C6.17025 32.4286 5.48779 31.9475 5.48779 31.3782V30.968C5.48779 30.309 6.26028 29.7523 7.17462 29.7523H17.5574C18.4717 29.7523 19.2442 30.309 19.2442 30.968V31.3782H19.2443Z" fill="white"/>
<path d="M36.7722 26.1001H34.9304L35.2023 25.9931C36.1646 25.6143 36.9217 24.8835 37.3343 23.9352C37.7469 22.987 37.7655 21.9348 37.3867 20.9726C37.1761 20.4374 36.8563 19.966 36.4511 19.5818C37.5579 18.527 37.9804 16.8664 37.3867 15.3583C37.1745 14.8191 36.8515 14.3443 36.4417 13.9584C37.5309 12.9025 37.9428 11.2546 37.3534 9.7574C37.1428 9.22225 36.823 8.75093 36.4177 8.36662C36.7894 8.01371 37.0904 7.58674 37.301 7.10265C37.7135 6.15438 37.7322 5.10223 37.3534 4.14002C36.9746 3.17773 36.2439 2.42061 35.2956 2.00799C34.3473 1.59538 33.2951 1.57682 32.333 1.95559L32.0266 2.07619V1.75024C32.0266 1.05452 31.4626 0.490479 30.7668 0.490479C30.0711 0.490479 29.5071 1.05452 29.5071 1.75024V3.06796L26.3313 4.31807C24.3449 5.10004 23.365 7.35217 24.1469 9.33857C24.361 9.88237 24.6856 10.3502 25.0845 10.7276C24.7119 11.0808 24.4103 11.5084 24.1993 11.9932C23.7868 12.9415 23.7682 13.9937 24.1469 14.9559C24.3589 15.4944 24.6812 15.9685 25.0902 16.354C24.7301 16.7022 24.4385 17.1211 24.2326 17.5941C23.8201 18.5424 23.8014 19.5946 24.1802 20.5569C24.3943 21.1007 24.719 21.5685 25.1177 21.946C24.0095 23.0006 23.5863 24.6623 24.1802 26.1711C24.1863 26.1868 24.1931 26.202 24.1995 26.2174C23.7682 26.4174 23.4683 26.8531 23.4683 27.3598C23.4683 28.0555 24.0323 28.6195 24.728 28.6195H24.9331V32.8397C24.9331 33.9837 25.3187 35.0665 26.0289 35.9422V39.5724C26.0289 40.2682 26.5929 40.8322 27.2886 40.8322H29.4904V41.7402C29.4904 42.436 30.0544 43 30.7501 43C31.4459 43 32.0099 42.436 32.0099 41.7402V40.8323H34.1776C34.8733 40.8323 35.4374 40.2682 35.4374 39.5725V35.9424C36.1476 35.0667 36.5332 33.9839 36.5332 32.8399V28.6197H36.7724C37.4681 28.6197 38.0322 28.0557 38.0322 27.3599C38.0322 26.6642 37.468 26.1001 36.7722 26.1001ZM34.2794 23.6487L28.2778 26.0111C28.1516 26.0608 28.0928 26.0905 27.8937 26.1002H27.688C27.1848 26.0641 26.7213 25.7483 26.5245 25.2484C26.2515 24.5547 26.5937 23.7682 27.2874 23.4951L33.278 21.1364C33.2817 21.1349 33.2854 21.1341 33.2891 21.1327C33.9825 20.8595 34.7693 21.2018 35.0423 21.8955C35.3153 22.5891 34.9731 23.3756 34.2794 23.6487ZM33.1903 9.93939C33.2121 9.93217 33.234 9.92587 33.2557 9.91739C33.9495 9.64435 34.7359 9.98659 35.009 10.6802C35.282 11.3739 34.9398 12.1604 34.2461 12.4335L28.2445 14.796C27.5507 15.0691 26.7643 14.7268 26.4913 14.0331C26.2182 13.3394 26.5604 12.5529 27.2541 12.2799L33.1903 9.93939ZM26.5428 18.5994C26.6869 18.2683 26.9513 18.0131 27.2874 17.8808L33.2816 15.5208C33.2841 15.5199 33.2866 15.5193 33.2891 15.5183C33.625 15.3859 33.9924 15.3925 34.3236 15.5366C34.6547 15.6807 34.91 15.9451 35.0422 16.2811C35.3153 16.9748 34.973 17.7614 34.2794 18.0344L28.2778 20.3969C27.584 20.6699 26.7976 20.3278 26.5245 19.634C26.3923 19.2979 26.3987 18.9306 26.5428 18.5994ZM27.254 6.66249L33.2557 4.30001C33.4178 4.23618 33.5849 4.20603 33.7494 4.20603C34.2888 4.20603 34.7997 4.53122 35.009 5.06284C35.282 5.75655 34.9398 6.54306 34.2461 6.8161L28.2445 9.17858C27.551 9.45153 26.7643 9.10946 26.4913 8.41575C26.2182 7.72204 26.5604 6.93552 27.254 6.66249ZM32.9178 35.4588V38.3128H28.5483V35.4588C28.5483 35.1217 28.4133 34.7988 28.1733 34.562C27.9444 34.3362 27.7664 34.0731 27.6445 33.7864H33.8218C33.6998 34.0731 33.5218 34.3362 33.2929 34.5619C33.0528 34.7987 32.9178 35.1217 32.9178 35.4588ZM34.0136 31.2668H27.4526V28.6196H34.0136V31.2668Z" fill="white"/>
</g>
<defs>
<clipPath id="clip0">
<rect width="43" height="43" fill="white" transform="translate(-1)"/>
</clipPath>
</defs>
</svg>
