<svg width="114" height="114" viewBox="0 0 114 114" fill="none" xmlns="http://www.w3.org/2000/svg">
<g clip-path="url(#clip0)">
<path d="M79.3239 60.7969L71.3574 69.4764C70.4688 70.4444 70.2332 71.8451 70.7559 73.0508C71.2363 74.1589 72.2749 74.9117 73.4597 75.0364L69.1766 79.8216C66.2896 83.0765 71.2152 87.4911 74.1362 84.2608L83.3065 74.016C84.178 73.0424 84.399 71.6488 83.8718 70.4535C83.4028 69.3901 82.419 68.6584 81.2881 68.5004L84.2275 65.2978C85.4702 63.944 85.3802 61.8384 84.0261 60.5956C82.6722 59.3527 80.5666 59.4428 79.3239 60.7969Z" fill="#fff"/>
<path d="M76.716 44.5417C73.5647 44.5417 70.5335 45.0653 67.7043 46.0296V40.0813H73.5594C75.3974 40.0813 76.8875 38.5912 76.8875 36.7532V23.0893C76.8875 21.2513 75.3974 19.7611 73.5594 19.7611H64.4772V3.52832C64.4772 1.69031 62.9871 0.200195 61.149 0.200195C59.311 0.200195 57.8209 1.69031 57.8209 3.52832V19.7611H41.3147V3.52832C41.3147 1.69031 39.8246 0.200195 37.9866 0.200195C36.1486 0.200195 34.6585 1.69031 34.6585 3.52832V19.7611H24.7473C22.9093 19.7611 21.4192 21.2513 21.4192 23.0893V36.7532C21.4192 38.5912 22.9093 40.0813 24.7473 40.0813H30.6026V75.2286C30.6026 76.9683 31.9383 78.3943 33.6396 78.542C34.8815 85.477 39.9427 90.9342 46.3278 92.1971C47.6806 94.6036 50.6816 100.957 46.715 104.063C46.3105 104.379 44.3986 105.1 41.3531 105.177C38.3989 105.254 35.7035 104.691 33.9574 103.637C31.4102 102.394 31.7677 99.5924 32.1438 97.0804C32.7457 92.7052 30.8933 88.5313 27.1884 85.9156C23.624 83.3991 19.0653 82.9416 15.5748 84.7497C13.3765 85.8888 9.68845 88.9344 9.68845 96.5365C9.68845 103.252 9.68335 113.797 9.68335 113.797L16.3396 113.8C16.3396 113.8 16.3447 103.254 16.3447 96.5365C16.3447 93.5126 17.1588 91.4254 18.6367 90.6597C19.9235 89.9926 21.8177 90.2715 23.3493 91.3529C24.1341 91.9069 25.9193 93.4858 25.5496 96.1727C24.4917 101.557 25.7116 106.592 30.5176 109.336C36.5713 112.99 46.9124 112.361 50.8179 109.303C54.9776 106.046 56.3426 100.94 54.661 94.9246C54.3475 93.8028 53.9554 92.7465 53.5498 91.8008C54.2638 91.5761 54.9627 91.2959 55.6417 90.9628C60.7785 96.8327 68.3211 100.546 76.7156 100.546C92.1563 100.546 104.718 87.9848 104.718 72.5441C104.718 57.1034 92.1567 44.5417 76.716 44.5417ZM28.0755 26.4174H70.2315V33.4253H28.0755V26.4174ZM61.0483 40.0813V49.346C53.777 54.2727 48.9344 62.5249 48.7218 71.9004H37.2586V40.0813H61.0483ZM49.1534 85.8222C45.1106 85.8222 41.674 82.7721 40.4652 78.5565H49.3655C49.8915 80.9512 50.7236 83.2323 51.8207 85.3556C50.9603 85.6598 50.0619 85.8222 49.1534 85.8222ZM76.716 93.8905C64.9455 93.8905 55.3696 84.3146 55.3696 72.5441C55.3696 60.7736 64.9455 51.1977 76.716 51.1977C88.4865 51.1977 98.0624 60.7736 98.0624 72.5441C98.0624 84.3146 88.4865 93.8905 76.716 93.8905Z" fill="#fff"/>
</g>
<defs>
<clipPath id="clip0">
<rect width="113.6" height="113.6" fill="white" transform="translate(0.400879 0.200195)"/>
</clipPath>
</defs>
</svg>
