<svg width="114" height="114" viewBox="0 0 114 114" fill="none" xmlns="http://www.w3.org/2000/svg">
<g clip-path="url(#clip0)">
<path d="M111.526 108.83L106.375 101.074C105.33 99.5015 104.034 98.1536 102.557 97.0653V40.8411C104.009 40.0006 105.256 38.8018 106.172 37.3073C108.057 34.2326 108.205 30.4787 106.568 27.2652C103.639 21.516 98.5677 18.0836 93.0011 18.0836H89.2028V17.0663C89.2028 15.2365 88.817 13.4961 88.1261 11.9181C89.5807 11.7753 91.2143 11.6918 92.7522 11.6135C101.765 11.3992 110.712 10.0539 109.168 0.400391C107.509 0.403053 104.171 0.404828 102.512 0.404163C102.524 1.24241 102.573 2.17872 102.565 3.29586C100.84 4.65107 95.3665 4.7944 92.4129 4.96613C88.9472 5.14275 85.6369 5.31381 83.0471 6.08505C81.0878 4.88027 78.7838 4.1838 76.3199 4.1838H72.7705C65.6672 4.1838 59.888 9.96276 59.888 17.0663V18.0836H53.7068V17.0663C53.7068 9.96276 47.9276 4.1838 40.8243 4.1838H37.2754C34.8277 4.1838 32.5375 4.87028 30.5863 6.06042C27.9973 5.29096 24.6925 5.12322 21.2325 4.94994C18.3082 4.78442 12.8315 4.64131 11.127 3.29763C11.1181 2.18072 11.1676 1.24218 11.1796 0.404163L4.52379 0.400391C2.97932 10.0471 11.9098 11.3959 20.8999 11.5975C22.422 11.6736 24.0377 11.7548 25.4806 11.8942C24.7832 13.4784 24.3931 15.2272 24.3931 17.0663V18.0836H20.5946C15.028 18.0836 9.9564 21.516 7.02787 27.2652C5.39088 30.4787 5.53887 34.2326 7.42326 37.3073C8.33916 38.8018 9.58632 40.0006 11.0385 40.8411V97.0651C9.56191 98.1534 8.26527 99.5013 7.22113 101.073L2.06919 108.829C0.587509 110.928 2.26 114.08 4.84152 113.999C4.8413 113.999 108.754 113.999 108.754 113.999C111.317 114.081 113.026 110.928 111.526 108.83ZM66.5443 17.0663C66.5443 13.633 69.3375 10.8398 72.7708 10.8398H76.3201C79.7534 10.8398 82.5466 13.633 82.5466 17.0663V18.0836H66.5441V17.0663H66.5443ZM31.0489 17.0663C31.0489 13.633 33.8421 10.8398 37.2754 10.8398H40.8248C44.2581 10.8398 47.0512 13.633 47.0512 17.0663V18.0836H31.0487V17.0663H31.0489ZM12.9588 30.2861C14.728 26.8128 17.5825 24.7394 20.5946 24.7394H93.0011C96.0133 24.7394 98.8679 26.8131 100.637 30.2861C101.223 31.4367 101.172 32.728 100.497 33.829C99.8226 34.9299 98.6949 35.5614 97.4038 35.5614H16.192C14.9007 35.5614 13.7731 34.9299 13.0984 33.829C12.4237 32.728 12.3726 31.4369 12.9588 30.2861ZM17.6945 42.2176H95.9012V94.1998C94.9545 94.0285 18.6413 94.0285 17.6945 94.1998V42.2176ZM11.0471 107.343L12.7653 104.756C14.496 102.15 17.4227 100.595 20.5944 100.595H93.0009C96.1728 100.595 99.0996 102.15 100.83 104.756L102.548 107.343H11.0471Z" fill="#fff"/>
<path d="M27.7207 60.2827H36.5258C38.3639 60.2827 39.8537 58.7926 39.8537 56.9548C39.8537 55.117 38.3639 53.6269 36.5258 53.6269H27.7207C25.8827 53.6269 24.3928 55.1168 24.3928 56.9548C24.3928 58.7928 25.8827 60.2827 27.7207 60.2827Z" fill="#fff"/>
<path d="M77.0694 60.2827H78.1439V61.3572C78.1439 63.1952 79.634 64.6851 81.4718 64.6851C83.3098 64.6851 84.7997 63.195 84.7997 61.3572V60.2827H85.8742C87.7123 60.2827 89.2021 58.7926 89.2021 56.9548C89.2021 55.117 87.712 53.6269 85.8742 53.6269H84.7997V52.5523C84.7997 50.7143 83.3096 49.2244 81.4718 49.2244C79.6338 49.2244 78.1439 50.7145 78.1439 52.5523V53.6269H77.0694C75.2313 53.6269 73.7415 55.1168 73.7415 56.9548C73.7415 58.7928 75.2316 60.2827 77.0694 60.2827Z" fill="#fff"/>
<path d="M53.225 71.3977L55.8063 70.4372L51.3763 82.0659C50.722 83.7835 51.584 85.7062 53.3015 86.3605C53.6916 86.5092 54.0916 86.5795 54.4857 86.5795C55.8267 86.5795 57.0905 85.763 57.5961 84.4353L64.6418 65.9405C65.1071 64.7195 64.8146 63.3392 63.8943 62.4116C62.974 61.4842 61.5959 61.1806 60.3714 61.6368L57.9059 62.5543L61.3933 53.7321C62.0689 52.0227 61.2311 50.0893 59.5218 49.4137C57.8125 48.7379 55.8791 49.5759 55.2034 51.2852L48.9696 67.0552C48.4866 68.2773 48.768 69.6693 49.6876 70.6079C50.6073 71.5466 51.9931 71.8559 53.225 71.3977Z" fill="#fff"/>
</g>
<defs>
<clipPath id="clip0">
<rect width="113.6" height="113.6" fill="white" transform="translate(0.000488281 0.400391)"/>
</clipPath>
</defs>
</svg>
