<svg width="114" height="114" viewBox="0 0 114 114" fill="none" xmlns="http://www.w3.org/2000/svg">
<g clip-path="url(#clip0_8_376)">
<path d="M89.0717 74.2586C90.0424 74.2586 90.965 73.8357 91.5986 73.1004C92.2323 72.3651 92.5143 71.3902 92.3708 70.4299L87.923 40.6645C87.679 39.0308 86.2758 37.8218 84.624 37.8218H66.5758C67.6403 36.103 68.2567 34.0788 68.2567 31.9129C68.2567 25.7057 63.2068 20.6558 56.9997 20.6558C50.7925 20.6558 45.7426 25.7057 45.7426 31.9129C45.7426 34.079 46.359 36.1032 47.4235 37.8218H29.3753C27.7235 37.8218 26.3203 39.0308 26.0763 40.6645L21.6292 70.4299C21.4857 71.39 21.7675 72.3649 22.4014 73.1004C23.035 73.8359 23.9576 74.2586 24.9283 74.2586H36.6415L40.0278 85.7437C40.2401 86.4637 40.689 87.091 41.302 87.5243L53.6647 96.2622V107.329H49.2584C47.4162 107.329 45.9228 108.823 45.9228 110.665C45.9228 112.507 47.4158 114 49.258 114H64.7418C66.584 114 68.0774 112.507 68.0774 110.665C68.0774 108.823 66.584 107.329 64.7418 107.329H60.3355V96.2693L72.7082 87.5243C73.321 87.091 73.7699 86.4637 73.9824 85.7437L77.3687 74.2586H89.0717ZM56.9999 27.3269C59.5284 27.3269 61.5854 29.3842 61.5854 31.9126C61.5854 34.4411 59.5284 36.4984 56.9999 36.4984C54.4714 36.4984 52.4144 34.4411 52.4144 31.9126C52.4144 29.3842 54.4714 27.3269 56.9999 27.3269ZM42.1422 67.5873L43.3692 59.3759H53.6642V67.5873H42.1422ZM53.6642 44.4932V52.7046H44.3659L45.5928 44.4932H53.6642ZM68.3734 44.4932L69.6004 52.7046H60.3358V44.4932H68.3734ZM60.3355 59.3759H70.597L71.824 67.5873H60.3355V59.3759ZM78.5695 67.5873L77.3425 59.3759H83.9735L85.2004 67.5873H78.5695ZM82.9766 52.7043H76.3456L75.1186 44.493H81.7498L82.9766 52.7043ZM38.8474 44.4932L37.6204 52.7046H31.023L32.2499 44.4932H38.8474ZM30.0263 59.3759H36.6238L35.3968 67.5873H28.7993L30.0263 59.3759ZM46.0989 82.7453L43.5969 74.2586H53.6642V88.0925L46.0989 82.7453ZM67.9108 82.7453L60.3355 88.0996V74.2588H70.4131L67.9108 82.7453Z" fill="#fff"/>
<path d="M37.7362 18.3148C38.3868 18.9607 39.2366 19.2833 40.0863 19.2833C40.9439 19.2833 41.8014 18.9545 42.4535 18.2979C43.7515 16.9906 43.7439 14.8784 42.4367 13.5804L37.6131 8.79125C36.3058 7.49329 34.194 7.50083 32.8958 8.80812C31.5978 10.1154 31.6054 12.2277 32.9127 13.5256L37.7362 18.3148Z" fill="#fff"/>
<path d="M30.1523 30.9481H35.669C37.5112 30.9481 39.0047 29.4546 39.0047 27.6124C39.0047 25.7702 37.5112 24.2767 35.669 24.2767H30.1523C28.3101 24.2767 26.8167 25.7702 26.8167 27.6124C26.8167 29.4546 28.3101 30.9481 30.1523 30.9481Z" fill="#fff"/>
<path d="M74.9944 27.6185C74.9944 29.4607 76.4878 30.9542 78.3301 30.9542H83.8468C85.689 30.9542 87.1824 29.4607 87.1824 27.6185C87.1824 25.7763 85.689 24.2828 83.8468 24.2828H78.3301C76.488 24.2828 74.9944 25.7763 74.9944 27.6185Z" fill="#fff"/>
<path d="M56.885 13.9186C58.7272 13.9186 60.2206 12.4251 60.2206 10.5829V3.73606C60.2206 1.89383 58.7272 0.400391 56.885 0.400391C55.0428 0.400391 53.5493 1.89383 53.5493 3.73606V10.5829C53.5493 12.4251 55.0428 13.9186 56.885 13.9186Z" fill="#fff"/>
<path d="M73.0353 18.7077C73.8851 18.7077 74.7351 18.3851 75.3854 17.7393L80.209 12.9501C81.5163 11.6521 81.524 9.54009 80.2258 8.2328C78.9276 6.92529 76.8154 6.91819 75.5085 8.21594L70.685 13.0051C69.3777 14.3031 69.3699 16.4151 70.6681 17.7224C71.3202 18.3791 72.1778 18.7077 73.0353 18.7077Z" fill="#fff"/>
</g>
<defs>
<clipPath id="clip0_8_376">
<rect width="113.6" height="113.6" fill="white" transform="translate(0.200195 0.400391)"/>
</clipPath>
</defs>
</svg>
