<svg width="16" height="16" viewBox="0 0 16 16" fill="none" xmlns="http://www.w3.org/2000/svg">
<path fill-rule="evenodd" clip-rule="evenodd" d="M8.60561 0.395644L10.712 4.8629L15.4223 5.57806C15.6766 5.61751 15.8876 5.80448 15.9671 6.06049C16.0462 6.31649 15.9802 6.59735 15.7964 6.7859L12.3862 10.2635L13.1924 15.1753C13.2346 15.4404 13.1302 15.7078 12.9226 15.866C12.807 15.9535 12.6676 16.0005 12.5252 15.9993C12.4159 16.0009 12.3086 15.9729 12.2125 15.9184L7.99982 13.5998L3.78714 15.9184C3.55996 16.0439 3.28457 16.0234 3.07661 15.8656C2.86865 15.7078 2.76429 15.4404 2.80724 15.1753L3.61346 10.2635L0.203231 6.7859C0.0197602 6.59735 -0.046169 6.31649 0.0329459 6.06049C0.112438 5.80448 0.323411 5.61751 0.577709 5.57806L5.28806 4.8629L7.3944 0.395644C7.50742 0.153446 7.74251 0 7.99982 0C8.25751 0 8.49259 0.153446 8.60561 0.395644Z" fill="#FF9900"/>
</svg>
